<?xml version="1.0" ?><svg viewBox="0 0 64 64" xmlns="http://www.w3.org/2000/svg"><defs><style>.cls-1{fill:#3279ea;}.cls-2{fill:#7aadf9;}.cls-3{fill:#e2e7f6;}.cls-4{fill:#9da1bf;}.cls-5{fill:#c8cded;}</style></defs><title/><g data-name="Layer 31" id="Layer_31"><circle class="cls-1" cx="32" cy="32" r="30"/><circle class="cls-2" cx="32" cy="32" r="26"/><path class="cls-3" d="M35.71,44.29l4.58-4.58A2.41,2.41,0,0,1,42,39h0a2.41,2.41,0,0,1,1.71.71l.58.58A2.41,2.41,0,0,1,45,42h0a2.41,2.41,0,0,1-.71,1.71l-4.58,4.58A2.41,2.41,0,0,1,38,49h0a2.41,2.41,0,0,1-1.71-.71l-.58-.58A2.41,2.41,0,0,1,35,46h0A2.41,2.41,0,0,1,35.71,44.29Z"/><rect class="cls-4" height="14.19" transform="translate(7.33 40.53) rotate(-45)" width="4.26" x="50.46" y="4.32"/><path class="cls-5" d="M49.07,10.9,32.84,27.13a2.85,2.85,0,0,0,4,4L53.1,14.93Z"/><path class="cls-5" d="M61.14,2.86a2.93,2.93,0,0,0-4.15,0l-5,5L56.17,12l5-5A2.93,2.93,0,0,0,61.14,2.86Z"/><path class="cls-3" d="M21.29,32.29l-4.58-4.58A2.41,2.41,0,0,0,15,27h0a2.41,2.41,0,0,0-1.71.71l-.58.58A2.41,2.41,0,0,0,12,30h0a2.41,2.41,0,0,0,.71,1.71l4.58,4.58A2.41,2.41,0,0,0,19,37h0a2.41,2.41,0,0,0,1.71-.71l.58-.58A2.41,2.41,0,0,0,22,34h0A2.41,2.41,0,0,0,21.29,32.29Z"/><circle class="cls-3" cx="23" cy="44" r="2"/><circle class="cls-3" cx="52" cy="30" r="2"/><circle class="cls-3" cx="23" cy="18" r="2"/><path d="M58.87,16.58l.94-.94a1,1,0,0,0,0-1.41L57.58,12l4.27-4.26a3.94,3.94,0,0,0-5.57-5.57L52,6.43,49.78,4.2a1,1,0,0,0-1.41,0l-.94.94A31,31,0,1,0,58.87,16.58Zm-1.17-13a1.93,1.93,0,0,1,2.73,2.73l-4.26,4.27L53.43,7.84Zm0,11.35-1.59,1.6L47.48,7.91l1.6-1.59Zm-6,0L36.16,30.47a1.85,1.85,0,1,1-2.62-2.62L49.07,12.32ZM32,61A29,29,0,1,1,46,6.6l-.61.6a1,1,0,0,0,0,1.42l2.29,2.29L32.13,26.43a3.85,3.85,0,1,0,5.45,5.45L53.1,16.36l2.29,2.29a1,1,0,0,0,.71.29,1,1,0,0,0,.7-.29l.61-.61A29,29,0,0,1,32,61Z"/><path d="M56.47,20.59l-1.81.84a25,25,0,1,1-13-12.5l.76-1.85A27,27,0,1,0,56.47,20.59Z"/><path d="M16.59,37A3.4,3.4,0,0,0,19,38a3.34,3.34,0,0,0,2-.63l1.33,1.34,1.42-1.42L22.37,36A3.34,3.34,0,0,0,23,34a3.4,3.4,0,0,0-1-2.41l-.09-.09,1.8-1.79L22.29,28.3,20.5,30.1l-1.59-1.59,1.8-1.79L19.29,25.3,17.5,27.1,17.41,27A3.5,3.5,0,0,0,13,26.64L11.71,25.3l-1.42,1.42,1.34,1.33A3.34,3.34,0,0,0,11,30a3.4,3.4,0,0,0,1,2.41l.09.09-1.8,1.79,1.42,1.42,1.79-1.8,1.59,1.59-1.8,1.79,1.42,1.42,1.79-1.8ZM15,28a1.43,1.43,0,0,1,1,.41L20.59,33a1.42,1.42,0,0,1,0,2L20,35.6a1.46,1.46,0,0,1-2,0L13.41,31a1.42,1.42,0,0,1,0-2l.59-.59A1.43,1.43,0,0,1,15,28Z"/><path d="M34.71,50.72,36,49.38A3.34,3.34,0,0,0,38,50a3.4,3.4,0,0,0,2.41-1l.09-.09,1.79,1.8,1.42-1.42-1.8-1.79,1.59-1.59,1.79,1.8,1.42-1.42-1.8-1.79.09-.09A3.4,3.4,0,0,0,46,42a3.34,3.34,0,0,0-.63-2l1.34-1.33L45.29,37.3,44,38.64a3.5,3.5,0,0,0-4.37.37l-.09.09-1.79-1.8-1.42,1.42,1.8,1.79L36.5,42.1l-1.79-1.8-1.42,1.42,1.8,1.79L35,43.6A3.4,3.4,0,0,0,34,46a3.34,3.34,0,0,0,.63,2L33.29,49.3ZM42,40a1.43,1.43,0,0,1,1,.41l.59.59a1.42,1.42,0,0,1,0,2L39,47.6a1.46,1.46,0,0,1-2,0L36.41,47a1.42,1.42,0,0,1,0-2L41,40.42A1.43,1.43,0,0,1,42,40Z"/><path d="M23,47a3,3,0,1,0-3-3A3,3,0,0,0,23,47Zm0-4a1,1,0,1,1-1,1A1,1,0,0,1,23,43Z"/><path d="M52,33a3,3,0,1,0-3-3A3,3,0,0,0,52,33Zm0-4a1,1,0,1,1-1,1A1,1,0,0,1,52,29Z"/><path d="M23,15a3,3,0,1,0,3,3A3,3,0,0,0,23,15Zm0,4a1,1,0,1,1,1-1A1,1,0,0,1,23,19Z"/><rect height="2" transform="translate(-26.45 34.15) rotate(-45)" width="2.83" x="26.59" y="48.01"/><rect height="2.83" transform="translate(-25.6 22.2) rotate(-45)" width="2" x="13" y="40.6"/><rect height="2" transform="translate(-3.95 26.49) rotate(-45)" width="2.83" x="28.59" y="17.01"/><rect height="2.83" transform="translate(1.17 26.85) rotate(-45)" width="2" x="32" y="10.6"/><rect height="2.83" transform="translate(-10.58 42.49) rotate(-45)" width="2" x="45" y="32.6"/></g></svg>